<svg viewBox="0 0 261 40" class="h-5 flex-shrink-0 md:h-6"><path fill-rule="evenodd" clip-rule="evenodd" d="M100.3 17.2C98.8001 15.2 96.3001 14 93.1001 13.8C93.2001 13.5 93.2001 13.2 93.2001 12.9C93.2001 12.3 93.0001 11.7 92.8001 11.2C97.1001 11.3 100.8 13.2 102.8 16.2C101.8 16.2 101 16.6 100.3 17.2ZM86.4001 15.4C85.8001 14.7 85.4001 13.8 85.4001 12.9V12.8C82.6001 14.1 80.2001 16.2 78.4001 18.7C79.3001 19 80.1001 19.7 80.6001 20.5C80.7001 20.3 80.8001 20.1 81.0001 19.9C82.2001 18.2 83.9001 16.7 86.0001 15.6C86.0619 15.5382 86.1237 15.5146 86.2091 15.482C86.2619 15.4618 86.3237 15.4382 86.4001 15.4ZM78.6001 26.1C78.2001 26.2 77.7001 26.3 77.2001 26.3C76.7001 26.3 76.2001 26.2 75.8001 26C75.7001 27.8 75.9001 29.5 76.8001 31.4C77.3001 32.5 78.0001 33.4 78.8001 34.2C79.2001 33.3 79.8001 32.6 80.7001 32.2C80.2001 31.6 79.8001 31 79.4001 30.3C78.8001 29 78.5001 27.5 78.6001 26.1ZM86.7001 35.1C86.6001 35.1 86.5251 35.075 86.4501 35.05C86.3751 35.025 86.3001 35 86.2001 35C86.2001 35.0899 86.2203 35.1798 86.2425 35.2788C86.2698 35.4 86.3001 35.5348 86.3001 35.7C86.3001 36.4 86.1001 37.1 85.7001 37.7C88.5001 38.1 91.7001 37.7 94.7001 36.4C94.1001 35.8 93.7001 34.9 93.6001 34C91.3001 35 88.8001 35.4 86.7001 35.1ZM101.9 23.8C102.2 23.9 102.5 24 102.9 24C103.5 24 104.1 23.8 104.6 23.6C104.4 25.7 103.6 28.2 101.9 30.6C101.75 30.8 101.575 31 101.4 31.2C101.225 31.4 101.05 31.6 100.9 31.8C100.5 31 99.8001 30.3 98.9001 30C99.0001 29.9 99.1001 29.775 99.2001 29.65C99.3001 29.525 99.4001 29.4 99.5001 29.3C100.9 27.4 101.7 25.5 101.9 23.8Z" fill="#666666"></path><circle cx="77.2001" cy="22.4" r="2.7" fill="#9999FF"></circle><path fill-rule="evenodd" clip-rule="evenodd" d="M78.5001 35.7C78.5001 33.5 80.2001 31.8 82.4001 31.8C84.6001 31.8 86.3001 33.5 86.3001 35.7C86.3001 37.9 84.6001 39.6 82.4001 39.6C80.2001 39.6 78.5001 37.9 78.5001 35.7ZM79.7001 35.7C79.7001 37.2 80.9001 38.4 82.4001 38.4C83.9001 38.4 85.1001 37.2 85.1001 35.7C85.1001 34.2 83.9001 33 82.4001 33C80.9001 33 79.7001 34.2 79.7001 35.7Z" fill="#191919"></path><circle cx="82.4001" cy="35.7" r="2.7" fill="#9999FF"></circle><path fill-rule="evenodd" clip-rule="evenodd" d="M85.4 12.9C85.4 10.7 87.1 9 89.3 9C91.5 9 93.2 10.7 93.2 12.9C93.2 15.1 91.5 16.8 89.3 16.8C87.1 16.8 85.4 15.1 85.4 12.9ZM86.6 12.9C86.6 14.4 87.8 15.6 89.3 15.6C90.8 15.6 92 14.4 92 12.9C92 11.4 90.8 10.2 89.3 10.2C87.8 10.2 86.6 11.4 86.6 12.9Z" fill="#191919"></path><circle cx="89.3" cy="12.9" r="2.7" fill="#9999FF"></circle><path fill-rule="evenodd" clip-rule="evenodd" d="M99.0001 20.1C99.0001 17.9 100.7 16.2 102.9 16.2C105.1 16.2 106.8 17.9 106.8 20.1C106.8 22.3 105.1 24 102.9 24C100.7 24 99.0001 22.3 99.0001 20.1ZM100.2 20.1C100.2 21.6 101.4 22.8 102.9 22.8C104.4 22.8 105.6 21.6 105.6 20.1C105.6 18.6 104.4 17.4 102.9 17.4C101.4 17.4 100.2 18.6 100.2 20.1Z" fill="#191919"></path><circle cx="102.9" cy="20.1" r="2.7" fill="#9999FF"></circle><path fill-rule="evenodd" clip-rule="evenodd" d="M93.6 33.6C93.6 31.4 95.3 29.7 97.5 29.7C99.7 29.7 101.4 31.4 101.4 33.6C101.4 35.8 99.7 37.5 97.5 37.5C95.3 37.5 93.6 35.8 93.6 33.6ZM94.8 33.6C94.8 35.1 96 36.3 97.5 36.3C99 36.3 100.2 35.1 100.2 33.6C100.2 32.1 99 30.9 97.5 30.9C96 30.9 94.8 32.1 94.8 33.6Z" fill="#191919"></path><circle cx="97.5" cy="33.6" r="2.7" fill="#9999FF"></circle></svg>